<?xml version="1.0" encoding="utf-8"?>
<!-- Generator: Adobe Illustrator 16.0.3, SVG Export Plug-In . SVG Version: 6.00 Build 0)  -->
<!DOCTYPE svg PUBLIC "-//W3C//DTD SVG 1.1//EN" "http://www.w3.org/Graphics/SVG/1.1/DTD/svg11.dtd">
<svg version="1.1" id="Calque_1" xmlns="http://www.w3.org/2000/svg" xmlns:xlink="http://www.w3.org/1999/xlink" x="0px" y="0px"
	 width="500px" height="500px" viewBox="0 0 500 500" enable-background="new 0 0 500 500" xml:space="preserve">
<path fill="#FFFFFF" d="M88.709,19.758c5.162-11.693,24.839-35.887,49.517-3.145c24.678,32.742,12.339,85,9.516,92.419
	c-2.822,7.419-8.064,18.791-8.064,18.791s56.452,79.597,67.339,105.726c64.013-9.909,128.809-13.824,193.549-11.693
	c8.907-0.101,16.209,7.038,16.311,15.945c0.01,0.871-0.051,1.742-0.182,2.603c-2.742,9.597-5.564,15.081-24.759,15.081
	c-19.193,0-133.87-1.371-163.063,19.193c-7.138,4.553-11.71,12.203-12.339,20.645c0,12.258,10.564,20.564,25.645,20.564h141.129
	c22.017,0,28.227,16.129,22.259,30.564c-9.194,22.258-54.517,45.162-54.517,45.162s-85.241,0-96.773,0
	c-10.942,0.561-19.358,9.885-18.798,20.828c0.019,0.369,0.048,0.738,0.088,1.107v52.016c0,3.71,0,4.354,1.129,6.371
	c1.129,2.016,7.339,2.016,7.339,2.016h112.902c7.03-0.313,12.983,5.133,13.296,12.163c0.006,0.112,0.009,0.225,0.011,0.337
	c0,8.065-5.645,12.662-15.161,12.662c-8.064,0-97.983,1.048-129.032,1.048c-6.693,0-8.548-3.226-8.548-3.226
	s-2.178-1.854-2.178-9.517c0-25.968,0-83.387,0-90.563c0-15.564-24.839-16.936-28.951-33.469
	c-4.113-16.531-4.113-62.419-21.936-107.742c-17.823-45.322-61.774-122.177-61.774-122.177S69.919,66.048,88.709,19.758z"/>
</svg>
