<?xml version="1.0" encoding="utf-8"?>
<!-- Generator: Adobe Illustrator 16.0.3, SVG Export Plug-In . SVG Version: 6.00 Build 0)  -->
<!DOCTYPE svg PUBLIC "-//W3C//DTD SVG 1.1//EN" "http://www.w3.org/Graphics/SVG/1.1/DTD/svg11.dtd">
<svg version="1.1" id="Calque_1" xmlns="http://www.w3.org/2000/svg" xmlns:xlink="http://www.w3.org/1999/xlink" x="0px" y="0px"
	 width="500px" height="500px" viewBox="0 0 500 500" enable-background="new 0 0 500 500" xml:space="preserve">
<path fill="#FFFFFF" d="M250,0C111.929,0,0,111.929,0,250s111.929,250,250,250c138.07,0,250-111.929,250-250S388.071,0,250,0z
	 M250,471.774c-122.705,0-222.178-99.473-222.178-222.178C27.823,126.891,127.295,27.419,250,27.419
	c122.705,0,222.178,99.473,222.178,222.178c0,0.134-0.001,0.269-0.001,0.403C471.999,372.566,372.566,471.818,250,471.774z"/>
<path fill="#FFFFFF" d="M445,277.5c-36.557-19.9-77.271-30.949-118.871-32.258c0-3.146-0.646-6.694-1.049-10.565
	c0-0.726-0.646-1.774-0.646-2.097c37.42-12.001,77.093-15.257,115.968-9.516c3.724,0.688,7.299-1.773,7.986-5.496
	c0.033-0.183,0.06-0.367,0.078-0.552c0.731-3.669-1.649-7.236-5.319-7.968c-0.214-0.042-0.431-0.075-0.647-0.097
	c-41.047-5.648-82.836-2.094-122.339,10.403c-1.605-3.792-3.493-7.458-5.646-10.968c30.962-23.779,66.74-40.512,104.839-49.032
	c3.919-0.713,6.519-4.468,5.807-8.387c-0.713-3.919-4.468-6.519-8.388-5.807c-40.252,9.151-78.103,26.743-111.048,51.613
	c-3.021-2.863-6.197-5.555-9.517-8.065c21.07-33.19,49.387-61.176,82.823-81.854c3.206-2.049,4.146-6.31,2.097-9.516
	c-2.049-3.207-6.31-4.146-9.517-2.097c-35.235,21.914-65.02,51.561-87.097,86.693c-3.871-1.774-8.064-3.145-11.612-4.597
	c8.572-38.176,25.542-73.962,49.677-104.758c2.17-3.078,1.722-7.288-1.048-9.838c-3.088-2.134-7.271-1.688-9.839,1.048
	c-25.727,32.495-43.585,70.502-52.178,111.048c-4.226-0.529-8.484-0.744-12.742-0.646c-5.678-39.059-2.171-78.904,10.242-116.371
	c1.258-3.524-0.578-7.4-4.102-8.658c-0.137-0.049-0.275-0.093-0.414-0.133c-3.629-1.227-7.565,0.719-8.792,4.348
	c-0.028,0.083-0.055,0.166-0.079,0.249c-13.056,39.247-16.783,80.997-10.888,121.936c-4.201,1.023-8.324,2.344-12.338,3.952
	c-18.347-34.869-28.367-73.513-29.274-112.903c-0.683-3.769-4.292-6.271-8.061-5.588c-2.993,0.542-5.284,2.971-5.649,5.991
	c1.216,41.325,11.805,81.834,30.968,118.468c-3.44,2.485-6.726,5.179-9.839,8.064c-29.665-25.87-52.654-58.514-67.016-95.161
	c-1.774-3.145-5.646-5.645-8.791-3.871c-3.145,1.774-5.645,5.645-3.951,8.791c15.389,38.559,39.419,73.074,70.242,100.887
	c-2.715,3.191-4.968,6.747-6.693,10.564c-36.292-15.04-68.733-38.054-94.92-67.338c-2.548-2.855-6.899-3.176-9.839-0.726
	c-2.814,2.567-3.133,6.886-0.726,9.839c27.764,30.99,62.13,55.353,100.564,71.291c-1.048,3.871-2.097,8.064-2.822,12.338
	c-39.183-1.771-77.488-12.18-112.178-30.484c-3.405-1.849-7.665-0.587-9.514,2.818c-0.001,0.001-0.002,0.003-0.002,0.004
	c-1.867,3.345-0.67,7.569,2.675,9.437c0.049,0.027,0.098,0.054,0.147,0.08c36.509,19.944,77.208,30.997,118.79,32.258
	c0,3.146,0.726,6.693,1.049,10.564c0,0.726,0.726,1.774,0.726,2.177c-37.466,11.788-77.121,14.904-115.968,9.113
	c-3.745-0.803-7.432,1.584-8.234,5.329c-0.802,3.745,1.584,7.433,5.329,8.234c0.372,0.079,0.751,0.129,1.131,0.146
	c13.092,1.851,26.295,2.794,39.517,2.822c28.182-0.179,56.188-4.444,83.145-12.661c1.704,3.794,3.728,7.436,6.049,10.887
	c-31.128,23.902-67.145,40.645-105.483,49.033c-3.778,0.951-6.22,4.613-5.646,8.467c0.617,3.26,3.456,5.627,6.774,5.646h1.693
	c40.506-8.315,78.607-25.684,111.451-50.807c2.824,3.075,6.021,5.784,9.517,8.065c-21.118,33.043-49.431,60.888-82.823,81.451
	c-3.143,1.77-4.256,5.754-2.485,8.896c0.204,0.363,0.442,0.705,0.712,1.022c1.201,2.176,3.571,3.44,6.048,3.226
	c1.315-0.285,2.608-0.662,3.871-1.129c35.165-21.92,64.869-51.569,86.854-86.693c3.871,1.774,8.065,3.145,11.613,4.597
	c-8.524,38.162-25.439,73.947-49.516,104.758c-2.135,3.087-1.688,7.271,1.048,9.839c1.255,1.147,2.896,1.781,4.597,1.774
	c2.188-0.135,4.226-1.153,5.646-2.822c25.727-32.495,43.584-70.503,52.178-111.049c2.896,0.547,5.845,0.764,8.79,0.646h3.871
	c5.523,38.979,1.907,78.708-10.564,116.048c-1.379,3.526,0.363,7.502,3.889,8.88c0.231,0.091,0.468,0.169,0.708,0.233
	c0.726,0,1.774,0.726,2.097,0.726c3.058-0.026,5.755-2.009,6.693-4.919c13.095-39.267,16.851-81.045,10.968-122.017
	c4.265-0.949,8.445-2.244,12.5-3.871c18.333,34.874,28.352,73.516,29.274,112.903c0,3.697,2.996,6.694,6.693,6.694l0,0
	c3.741-0.043,6.739-3.109,6.697-6.851c-0.001-0.056-0.002-0.11-0.004-0.166c-2.606-41.513-13.841-82.024-32.983-118.952
	c3.488-2.455,6.803-5.15,9.919-8.064c29.09,26.457,51.855,59.117,66.612,95.564c1.086,2.754,3.734,4.573,6.694,4.598
	c0.998,0.11,2.002-0.148,2.822-0.727c3.226-1.773,5.646-5.645,3.871-8.79c-15.371-38.446-39.215-72.931-69.758-100.888
	c2.651-3.236,4.899-6.783,6.693-10.564c36.284,15.012,68.705,38.031,94.839,67.34c1.144,1.531,3.021,2.332,4.919,2.096
	c1.688-0.063,3.305-0.688,4.597-1.773c2.814-2.567,3.134-6.887,0.726-9.839c-27.754-31.001-62.123-55.364-100.564-71.29
	c1.179-4.055,2.121-8.175,2.823-12.339c39.182,1.771,77.488,12.181,112.177,30.483c0.913,0.671,2.013,1.037,3.146,1.049
	c2.614,0.055,5.003-1.475,6.048-3.871C449.184,284,448.133,279.797,445,277.5z M292.661,276.129
	c-19.554,19.244-50.93,19.244-70.484,0c-15.989-15.945-16.025-41.833-0.08-57.823c0.027-0.027,0.054-0.054,0.08-0.081
	c13.053-12.968,34.126-12.968,47.178,0c10.823,10.592,11.011,27.952,0.419,38.774c-0.138,0.142-0.277,0.281-0.419,0.42
	c-8.999,8.685-23.259,8.685-32.258,0c-7.426-7.663-7.426-19.838,0-27.5c6.466-6.364,16.841-6.364,23.307,0
	c5.456,5.186,5.675,13.812,0.489,19.268c-0.159,0.167-0.322,0.331-0.489,0.49c-1.779,1.71-4.592,1.71-6.371,0
	c-1.753-1.762-1.753-4.609,0-6.371c1.771-2.034,1.771-5.063,0-7.097c-2.832-2.82-7.41-2.82-10.242,0
	c-3.892,4.056-3.892,10.459,0,14.516c5.538,5.254,14.22,5.254,19.758,0c7.216-6.954,7.427-18.441,0.473-25.657
	c-0.154-0.16-0.313-0.317-0.473-0.472c-9.364-9.531-24.682-9.667-34.213-0.303c-0.103,0.1-0.203,0.201-0.303,0.303
	c-5.95,5.87-9.267,13.9-9.193,22.258c-0.089,8.336,3.232,16.348,9.193,22.177c15.637,15.856,41.167,16.033,57.023,0.396
	c0.133-0.131,0.265-0.263,0.396-0.396c20.232-20.248,20.232-53.059,0-73.307c-12.299-12.423-29.051-19.419-46.532-19.435
	c8.468-3.871,40.322,0.403,53.226,13.064c11.383,11.426,17.839,26.856,17.984,42.984
	C310.77,248.754,304.165,264.414,292.661,276.129z"/>
</svg>
