<?xml version="1.0" encoding="utf-8"?>
<!-- Generator: Adobe Illustrator 16.0.3, SVG Export Plug-In . SVG Version: 6.00 Build 0)  -->
<!DOCTYPE svg PUBLIC "-//W3C//DTD SVG 1.1//EN" "http://www.w3.org/Graphics/SVG/1.1/DTD/svg11.dtd">
<svg version="1.1" id="Calque_1" xmlns="http://www.w3.org/2000/svg" xmlns:xlink="http://www.w3.org/1999/xlink" x="0px" y="0px"
	 width="500px" height="500px" viewBox="0 0 500 500" enable-background="new 0 0 500 500" xml:space="preserve">
<path fill="#FFFFFF" d="M491.935,350.242c16.694-37.903,6.13-84.517-29.758-131.21l-0.403-0.484
	c2.823-7.258,5.403-14.516,7.581-21.774c18.71-61.129,11.532-112.903-20.081-146.936C397.5-5.484,290.726,6.532,190.726,72.016
	c-35.298-5.299-71.299-3.49-105.887,5.323L60.645,53.145c2.53-4.155,3.87-8.925,3.871-13.79C64.56,24.39,52.463,12.223,37.498,12.18
	c-14.965-0.044-27.132,12.053-27.176,27.018C10.28,54.163,22.375,66.329,37.341,66.373c0.134,0,0.268,0,0.4-0.002
	c5.114,0.009,10.123-1.446,14.436-4.194l19.598,19.436c-30,11.21-52.662,29.919-63.71,55.484
	c-16.129,36.048-7.258,78.146,20,119.032c-5.727,12.369-10.604,25.113-14.597,38.146c-18.71,61.129-11.532,112.903,20.08,146.936
	c22.178,23.548,54.193,35.645,92.823,35.645c17.725-0.146,35.371-2.364,52.58-6.612c43.424-11.294,84.42-30.425,120.968-56.451
	c16.916,2.648,34.007,4.023,51.129,4.112c8.064,0,16.129,0,24.193-1.129c10.287-0.83,20.501-2.394,30.564-4.678l34.517,34.113
	c-2.673,4.223-4.099,9.115-4.113,14.112c-0.044,14.965,12.051,27.133,27.017,27.178c14.965,0.044,27.133-12.051,27.177-27.017
	c0.045-14.965-12.051-27.132-27.016-27.177c-0.027,0-0.054,0-0.081,0c-5.113-0.01-10.122,1.445-14.436,4.193l-29.516-28.791
	C454.999,397.822,480.241,377.822,491.935,350.242z M356.29,36.452c31.612,0,58.468,9.274,76.854,28.871
	c25.887,27.5,31.21,71.854,15,124.919c-0.887,2.822-1.854,5.726-2.822,8.548c-5.564-5.887-11.371-11.694-17.5-17.339
	c8.064-37.5,1.936-70.242-19.274-91.452c-30.726-30.726-85.322-29.113-143.709-1.291c-13.457-4.407-27.131-8.122-40.968-11.129
	C270.484,50.807,317.016,36.452,356.29,36.452z M135.887,145.161l22.822,22.581c-33.082,33.184-59.162,72.675-76.693,116.129
	c-9.927-9.541-19.094-19.841-27.419-30.807C75.684,212.94,103.137,176.499,135.887,145.161z M407.58,164.274
	c-29.667-23.312-62.188-42.743-96.774-57.823c-4.677-2.097-9.273-4.032-13.951-5.887c16.381-6.347,33.729-9.838,51.29-10.322
	c16.484-0.879,32.624,4.937,44.758,16.129c12.903,12.903,17.5,33.387,14.678,57.742V164.274z M301.37,126.936
	c36.484,15.703,70.495,36.62,100.968,62.097c-11.371,39.436-38.629,85.161-77.903,125.483l-39.516-39.112
	c28.629-31.694,35.242-72.581,14.274-93.629c-20.968-21.049-62.339-14.274-94.032,14.677l-21.774-21.532
	c24.689-24.465,52.84-45.17,83.549-61.452C278.387,117.419,289.839,121.855,301.37,126.936z M167.258,159.193l-22.097-22.581
	c16.009-14.865,33.069-28.557,51.048-40.968c13.795,2.139,27.47,4.992,40.968,8.548c-25.27,15.565-48.722,33.905-69.919,54.678
	V159.193z M93.871,325.242c29.463,22.686,61.614,41.646,95.726,56.451c8.548,3.791,17.178,7.258,25.807,10.403
	c-6.406,2.772-12.946,5.222-19.597,7.339c-38.952,12.339-70.242,9.274-87.984-8.064c-14.274-14.92-19.113-37.822-13.951-66.451
	V325.242z M198.709,361.129c-35.528-15.43-68.704-35.791-98.548-60.484c15.951-43.972,41.425-83.875,74.597-116.854l21.774,21.613
	c-28.226,31.532-34.597,72.581-13.71,93.064s61.854,14.354,93.468-14.193l39.516,39.112c-21.627,21.186-45.82,39.581-72.016,54.758
	c-15.334-4.947-30.383-10.736-45.081-17.338V361.129z M331.855,338.709l11.21,11.13l-1.694,1.612
	c-14.763,13.913-30.443,26.818-46.935,38.629c-6.936-1.209-13.871-2.66-20.888-4.273
	C294.407,371.957,313.927,356.189,331.855,338.709z M340.484,330.645c35.542-35.082,63.056-77.453,80.646-124.193
	c5.322,5.323,10.403,10.726,15.08,16.129c-20.666,44.441-49.25,84.75-84.354,118.952L340.484,330.645z M147.984,91.774
	c4.678,0,9.517,0,14.436,0c-11.451,9.193-22.742,18.709-33.387,29.193l-25.403-25C118.239,93.107,133.097,91.702,147.984,91.774z
	 M28.468,146.532c10-22.823,32.258-38.629,61.209-47.177l30.162,29.677c-31.36,30.199-58.148,64.81-79.517,102.742
	C22.823,201.613,17.58,171.209,28.468,146.532z M173.629,448.307c-53.952,12.903-97.903,4.919-123.71-22.581
	S18.79,353.871,35,300.807c2.419-8.064,5.403-16.129,8.629-24.193c9.478,11.254,19.717,21.843,30.646,31.693
	C63.951,350,70,384.597,91.855,406.451c16.395,15.412,38.329,23.528,60.807,22.5c16.952-0.145,33.784-2.864,49.919-8.064
	c15.089-4.881,29.716-11.088,43.71-18.548c7.339,2.097,14.517,4.032,21.774,5.726c-29.171,18.232-61.005,31.81-94.355,40.242
	H173.629z M373.467,394.678c-15.725,1.328-31.533,1.328-47.258,0c10.403-8.064,20.646-17.098,30.564-26.452l2.259-2.177
	l27.419,27.177c-4.113,0.483-8.468,1.049-12.903,1.452H373.467z M401.129,390.403l-33.388-32.983
	c34.093-33.459,62.431-72.314,83.871-115c25.081,36.372,32.258,71.129,20.081,98.79c-10.646,24.113-35.323,41.13-70.484,49.194
	H401.129z"/>
</svg>
