<?xml version="1.0" encoding="utf-8"?>
<!-- Generator: Adobe Illustrator 16.0.3, SVG Export Plug-In . SVG Version: 6.00 Build 0)  -->
<!DOCTYPE svg PUBLIC "-//W3C//DTD SVG 1.1//EN" "http://www.w3.org/Graphics/SVG/1.1/DTD/svg11.dtd">
<svg version="1.1" id="Calque_1" xmlns="http://www.w3.org/2000/svg" xmlns:xlink="http://www.w3.org/1999/xlink" x="0px" y="0px"
	 width="500px" height="500px" viewBox="0 0 500 500" enable-background="new 0 0 500 500" xml:space="preserve">
<path fill="#FFFFFF" d="M250,0c-24.193,0-42.5,141.774-42.42,148.145v58.629l-28.629,10.968c-2.724,1.063-4.517,3.688-4.516,6.613
	v48.387c-0.061,2.359,1.098,4.583,3.064,5.887c1.903,1.373,4.396,1.619,6.532,0.646l23.145-8.71v114.032l-50.402,19.194
	c-2.759,1.048-4.608,3.662-4.678,6.612v82.5c0.015,2.339,1.194,4.516,3.145,5.807c1.932,1.367,4.432,1.642,6.613,0.726
	l56.854-21.532c2.753-1.132,4.563-3.799,4.598-6.774v-3.387c-0.045-3.875,3.06-7.053,6.934-7.097c0.055-0.001,0.108-0.001,0.163,0
	h37.983c3.919,0.044,7.061,3.257,7.017,7.176c0,0.001,0,0.001,0,0.001v3.146c-0.022,2.974,1.813,5.646,4.597,6.693L338.145,500
	c0.856,0.122,1.725,0.122,2.581,0c1.432-0.012,2.82-0.493,3.951-1.371c1.947-1.266,3.152-3.404,3.226-5.726v-82.581
	c0.038-2.916-1.773-5.537-4.516-6.531l-51.29-19.598V270l24.193,9.032c2.163,0.856,4.609,0.584,6.532-0.726
	c1.922-1.354,3.088-3.537,3.145-5.887v-48.388c-0.288-2.896-2.243-5.355-5-6.29l-28.87-11.049v-58.629
	C292.097,141.774,274.194,0,250,0z M278.307,211.371c-0.043,2.714,1.501,5.204,3.951,6.371l28.951,11.048v33.065l-24.193-9.194
	c-2.217-0.696-4.628-0.403-6.612,0.807c-1.961,1.302-3.094,3.536-2.984,5.888v129.838c-16.244,13.916-40.207,13.916-56.451,0V259.92
	c-0.075-2.305-1.205-4.445-3.064-5.807c-1.948-1.313-4.407-1.611-6.613-0.807l-23.064,8.871v-32.984l28.146-10.806
	c2.783-1.048,4.618-3.72,4.597-6.694v-47.984c7.396,4.386,15.646,7.136,24.193,8.065c1.371,0,2.661,0,4.032,0
	c10.128-0.269,19.916-3.71,27.983-9.839L278.307,211.371z"/>
</svg>
